<svg width="166" height="20" viewBox="0 0 166 20" fill="none" xmlns="http://www.w3.org/2000/svg">
<path d="M9.8429 0.349792C14.9939 0.349792 18.9411 4.01512 19.5913 8.79009H13.8277C13.2834 7.09601 11.7534 5.95238 9.8429 5.95238C7.41621 5.95238 5.61671 7.75601 5.61668 10.1884C5.61668 12.6206 7.41618 14.4245 9.8429 14.4245C11.7639 14.4245 13.3001 13.2681 13.8363 11.5588H19.5943C18.9532 16.3234 15.0018 20 9.8429 20C4.17161 20 0 15.5996 0 10.1884C2.45626e-05 4.74984 4.17161 0.349792 9.8429 0.349792Z" fill="#0A0A0A"/>
<path d="M30.0664 0.349854C35.7104 0.349854 39.9093 4.74992 39.9093 10.1885C39.9093 15.5999 35.7104 19.9998 30.0664 19.9998C24.3951 19.9998 20.2236 15.5999 20.2236 10.1885C20.2236 4.74992 24.3951 0.349854 30.0664 0.349854ZM30.0664 14.4245C32.4659 14.4245 34.2653 12.6209 34.2653 10.1885C34.2653 7.75629 32.4659 5.95241 30.0664 5.95241C27.6398 5.95241 25.8404 7.75629 25.8404 10.1885C25.8404 12.6209 27.6398 14.4245 30.0664 14.4245Z" fill="#0A0A0A"/>
<path d="M48.5273 0.705139C54.1986 0.705139 58.2067 4.74991 58.2067 10.1885C58.2067 15.5178 54.1168 19.6446 48.4455 19.6446H40.5386V0.705139H48.5273ZM48.4455 14.2332C50.9541 14.2332 52.59 12.6209 52.59 10.1885C52.59 7.75628 50.9541 6.14374 48.4455 6.14374H46.128V14.2332H48.4455Z" fill="#0A0A0A"/>
<path d="M71.3967 6.19827H64.3077V8.00215H71.3967V12.4023H64.3077V14.0966H71.3967V19.6446H58.7183V0.705139H71.3967V6.19827Z" fill="#0A0A0A"/>
<path d="M83.3237 12.1289L87.085 19.6446H80.1323L78.6249 12.6482H77.7328V19.6446H72.1436V0.705139H79.8869C83.4313 0.705139 86.3216 3.19213 86.3216 6.82707C86.3216 9.12269 84.8505 11.1997 83.3237 12.1289ZM79.3144 8.71274C80.1868 8.71274 80.7321 8.22075 80.7321 7.37359C80.7321 6.55369 80.1868 6.00717 79.3144 6.00717H77.7328V8.71274H79.3144Z" fill="#0A0A0A"/>
<path d="M97.9931 0.705139H103.583V19.6446H97.9931V12.4841H93.3033V19.6446H87.7139V0.705139H93.3033V7.51016H97.9931V0.705139Z" fill="#0A0A0A"/>
<path d="M132.461 0.527466H138.132V13.1537C138.132 16.8432 135.651 19.8222 131.315 19.8222C127.008 19.8222 124.526 16.8432 124.526 13.1537V0.527466H130.198V12.7437C130.198 13.4543 130.525 14.0829 131.315 14.0829C132.134 14.0829 132.461 13.4543 132.461 12.7437V0.527466Z" fill="#0A0A0A"/>
<path d="M148.65 8.67175C150.286 9.49165 151.895 11.0767 151.895 13.5364C151.895 17.2259 149.223 19.9863 145.215 19.9863C141.234 19.9863 138.644 17.1166 138.644 13.5364V12.9078H143.66V13.2632C143.66 14.2197 144.151 15.0121 145.105 15.0121C145.869 15.0121 146.36 14.5476 146.36 13.8643C146.36 13.345 146.087 12.9899 145.624 12.7437L141.997 10.9128C140.334 10.0929 138.862 8.17976 138.862 5.91141C138.862 2.79586 141.37 0.363525 145.269 0.363525C149.223 0.363525 151.567 2.87785 151.567 5.8021V6.53996H146.905V6.32136C146.905 5.5835 146.36 4.84559 145.433 4.84559C144.669 4.84559 144.26 5.28287 144.26 5.85688C144.26 6.48544 144.697 6.70404 145.078 6.86787L148.65 8.67175Z" fill="#0A0A0A"/>
<path d="M157.996 6.19827H165.085V0.705139H152.406V19.6446H165.085V14.0966H157.996V12.4023H165.085V8.00215H157.996V6.19827Z" fill="#0A0A0A"/>
<path d="M118.93 18.3956C117.502 19.1939 115.832 19.65 114.012 19.65C112.182 19.65 110.508 19.1941 109.08 18.3956H118.93Z" fill="#0A0A0A"/>
<path d="M122.378 15.1191C122.088 15.5812 121.76 16.0169 121.397 16.4219H106.617C106.255 16.0169 105.928 15.5812 105.639 15.1191H122.378Z" fill="#0A0A0A"/>
<path d="M110.24 11.8427C110.497 12.3512 110.854 12.7925 111.289 13.1453H104.696C104.55 12.7235 104.431 12.2888 104.342 11.8427H110.24Z" fill="#0A0A0A"/>
<path d="M123.68 11.8427C123.591 12.2888 123.471 12.7235 123.325 13.1453H116.713C117.145 12.7925 117.501 12.3512 117.758 11.8427H123.68Z" fill="#0A0A0A"/>
<path d="M114.012 0C119.669 0 123.878 4.40005 123.878 9.8387C123.878 9.84877 123.877 9.85884 123.877 9.86891H118.22C118.22 9.85884 118.22 9.84877 118.22 9.8387C118.22 7.40626 116.416 5.60263 114.012 5.60263C111.579 5.60263 109.775 7.40626 109.775 9.8387C109.775 9.84877 109.776 9.85884 109.776 9.86891H104.146C104.146 9.85884 104.146 9.84877 104.146 9.8387C104.146 4.40005 108.327 0 114.012 0Z" fill="#0A0A0A"/>
</svg>
